<svg xmlns="http://www.w3.org/2000/svg" xmlns:xlink="http://www.w3.org/1999/xlink" contentStyleType="text/css" height="709px" preserveAspectRatio="none" style="width:679px;height:709px;background:#FFFFFF;" version="1.1" viewBox="0 0 679 709" width="679px" zoomAndPan="magnify"><defs/><g><ellipse cx="397.8584" cy="20" fill="#222222" rx="10" ry="10" style="stroke:#222222;stroke-width:1.0;"/><rect fill="#F1F1F1" height="33.9688" rx="12.5" ry="12.5" style="stroke:#181818;stroke-width:0.5;" width="90.7109" x="352.5029" y="50"/><text fill="#000000" font-family="sans-serif" font-size="12" lengthAdjust="spacing" textLength="70.7109" x="362.5029" y="71.1387">Launch App</text><rect fill="#F1F1F1" height="33.9688" rx="12.5" ry="12.5" style="stroke:#181818;stroke-width:0.5;" width="120.0547" x="337.8311" y="103.9688"/><text fill="#000000" font-family="sans-serif" font-size="12" lengthAdjust="spacing" textLength="100.0547" x="347.8311" y="125.1074">Select Language</text><polygon fill="#F1F1F1" points="350.7512,157.9375,444.9656,157.9375,456.9656,169.9375,444.9656,181.9375,350.7512,181.9375,338.7512,169.9375,350.7512,157.9375" style="stroke:#181818;stroke-width:0.5;"/><text fill="#000000" font-family="sans-serif" font-size="11" lengthAdjust="spacing" textLength="94.2144" x="350.7512" y="173.7456">Image Detected?</text><text fill="#000000" font-family="sans-serif" font-size="11" lengthAdjust="spacing" textLength="19.0083" x="319.7429" y="167.3433">yes</text><text fill="#000000" font-family="sans-serif" font-size="11" lengthAdjust="spacing" textLength="13.7017" x="456.9656" y="167.3433">no</text><rect fill="#F1F1F1" height="33.9688" rx="12.5" ry="12.5" style="stroke:#181818;stroke-width:0.5;" width="123.2949" x="166.4668" y="191.9375"/><text fill="#000000" font-family="sans-serif" font-size="12" lengthAdjust="spacing" textLength="103.2949" x="176.4668" y="213.0762">Recognize Image</text><rect fill="#F1F1F1" height="33.9688" rx="12.5" ry="12.5" style="stroke:#181818;stroke-width:0.5;" width="168.8574" x="143.6855" y="245.9063"/><text fill="#000000" font-family="sans-serif" font-size="12" lengthAdjust="spacing" textLength="148.8574" x="153.6855" y="267.0449">Display Available Games</text><rect fill="#F1F1F1" height="33.9688" rx="12.5" ry="12.5" style="stroke:#181818;stroke-width:0.5;" width="96.5586" x="179.835" y="299.875"/><text fill="#000000" font-family="sans-serif" font-size="12" lengthAdjust="spacing" textLength="76.5586" x="189.835" y="321.0137">Select Game</text><polygon fill="#F1F1F1" points="37.812,353.8438,106.8735,353.8438,118.8735,365.8438,106.8735,377.8438,37.812,377.8438,25.812,365.8438,37.812,353.8438" style="stroke:#181818;stroke-width:0.5;"/><text fill="#000000" font-family="sans-serif" font-size="11" lengthAdjust="spacing" textLength="27.5161" x="76.3428" y="388.0542">Math</text><text fill="#000000" font-family="sans-serif" font-size="11" lengthAdjust="spacing" textLength="69.0615" x="37.812" y="369.6519">Game Type?</text><rect fill="#F1F1F1" height="33.9688" rx="12.5" ry="12.5" style="stroke:#181818;stroke-width:0.5;" width="122.6855" x="11" y="410.6484"/><text fill="#000000" font-family="sans-serif" font-size="12" lengthAdjust="spacing" textLength="102.6855" x="21" y="431.7871">Start Math Game</text><polygon fill="#F1F1F1" points="200.6626,353.8438,239.0659,353.8438,251.0659,365.8438,239.0659,377.8438,200.6626,377.8438,188.6626,365.8438,200.6626,353.8438" style="stroke:#181818;stroke-width:0.5;"/><text fill="#000000" font-family="sans-serif" font-size="11" lengthAdjust="spacing" textLength="38.4033" x="200.6626" y="369.6519">Coding</text><text fill="#000000" font-family="sans-serif" font-size="11" lengthAdjust="spacing" textLength="42.6411" x="251.0659" y="363.2495">Science</text><rect fill="#F1F1F1" height="33.9688" rx="12.5" ry="12.5" style="stroke:#181818;stroke-width:0.5;" width="134.5625" x="152.583" y="397.8438"/><text fill="#000000" font-family="sans-serif" font-size="12" lengthAdjust="spacing" textLength="114.5625" x="162.583" y="418.9824">Start Coding Game</text><rect fill="#F1F1F1" height="33.9688" rx="12.5" ry="12.5" style="stroke:#181818;stroke-width:0.5;" width="139.1855" x="307.1455" y="407.2461"/><text fill="#000000" font-family="sans-serif" font-size="12" lengthAdjust="spacing" textLength="119.1855" x="317.1455" y="428.3848">Start Science Game</text><rect fill="#F1F1F1" height="33.9688" rx="12.5" ry="12.5" style="stroke:#181818;stroke-width:0.5;" width="84.5645" x="185.832" y="484.6172"/><text fill="#000000" font-family="sans-serif" font-size="12" lengthAdjust="spacing" textLength="64.5645" x="195.832" y="505.7559">Play Game</text><rect fill="#F1F1F1" height="33.9688" rx="12.5" ry="12.5" style="stroke:#181818;stroke-width:0.5;" width="112.959" x="171.6348" y="538.5859"/><text fill="#000000" font-family="sans-serif" font-size="12" lengthAdjust="spacing" textLength="92.959" x="181.6348" y="559.7246">Provide Answer</text><rect fill="#F1F1F1" height="33.9688" rx="12.5" ry="12.5" style="stroke:#181818;stroke-width:0.5;" width="105.6641" x="175.2822" y="592.5547"/><text fill="#000000" font-family="sans-serif" font-size="12" lengthAdjust="spacing" textLength="85.6641" x="185.2822" y="613.6934">Display Result</text><rect fill="#F1F1F1" height="33.9688" rx="12.5" ry="12.5" style="stroke:#181818;stroke-width:0.5;" width="202.543" x="466.3311" y="191.9375"/><text fill="#000000" font-family="sans-serif" font-size="12" lengthAdjust="spacing" textLength="182.543" x="476.3311" y="213.0762">Prompt to Detect Image Again</text><polygon fill="#F1F1F1" points="397.8584,632.5234,409.8584,644.5234,397.8584,656.5234,385.8584,644.5234,397.8584,632.5234" style="stroke:#181818;stroke-width:0.5;"/><ellipse cx="397.8584" cy="687.5234" fill="none" rx="11" ry="11" style="stroke:#222222;stroke-width:1.0;"/><ellipse cx="397.8584" cy="687.5234" fill="#222222" rx="6" ry="6" style="stroke:#222222;stroke-width:1.0;"/><line style="stroke:#181818;stroke-width:1.0;" x1="397.8584" x2="397.8584" y1="30" y2="50"/><polygon fill="#181818" points="393.8584,40,397.8584,50,401.8584,40,397.8584,44" style="stroke:#181818;stroke-width:1.0;"/><line style="stroke:#181818;stroke-width:1.0;" x1="397.8584" x2="397.8584" y1="83.9688" y2="103.9688"/><polygon fill="#181818" points="393.8584,93.9688,397.8584,103.9688,401.8584,93.9688,397.8584,97.9688" style="stroke:#181818;stroke-width:1.0;"/><line style="stroke:#181818;stroke-width:1.0;" x1="228.1143" x2="228.1143" y1="225.9063" y2="245.9063"/><polygon fill="#181818" points="224.1143,235.9063,228.1143,245.9063,232.1143,235.9063,228.1143,239.9063" style="stroke:#181818;stroke-width:1.0;"/><line style="stroke:#181818;stroke-width:1.0;" x1="228.1143" x2="228.1143" y1="279.875" y2="299.875"/><polygon fill="#181818" points="224.1143,289.875,228.1143,299.875,232.1143,289.875,228.1143,293.875" style="stroke:#181818;stroke-width:1.0;"/><line style="stroke:#181818;stroke-width:1.0;" x1="72.3428" x2="72.3428" y1="377.8438" y2="410.6484"/><polygon fill="#181818" points="68.3428,400.6484,72.3428,410.6484,76.3428,400.6484,72.3428,404.6484" style="stroke:#181818;stroke-width:1.0;"/><line style="stroke:#181818;stroke-width:1.0;" x1="72.3428" x2="72.3428" y1="444.6172" y2="464.6172"/><polygon fill="#181818" points="68.3428,454.6172,72.3428,464.6172,76.3428,454.6172,72.3428,458.6172" style="stroke:#181818;stroke-width:1.0;"/><line style="stroke:#181818;stroke-width:1.0;" x1="219.8643" x2="219.8643" y1="377.8438" y2="397.8438"/><polygon fill="#181818" points="215.8643,387.8438,219.8643,397.8438,223.8643,387.8438,219.8643,391.8438" style="stroke:#181818;stroke-width:1.0;"/><line style="stroke:#181818;stroke-width:1.0;" x1="219.8643" x2="219.8643" y1="431.8125" y2="464.6172"/><polygon fill="#181818" points="215.8643,454.6172,219.8643,464.6172,223.8643,454.6172,219.8643,458.6172" style="stroke:#181818;stroke-width:1.0;"/><line style="stroke:#181818;stroke-width:1.0;" x1="118.8735" x2="188.6626" y1="365.8438" y2="365.8438"/><polygon fill="#181818" points="178.6626,361.8438,188.6626,365.8438,178.6626,369.8438,182.6626,365.8438" style="stroke:#181818;stroke-width:1.0;"/><line style="stroke:#181818;stroke-width:1.0;" x1="228.1143" x2="228.1143" y1="333.8438" y2="338.8438"/><line style="stroke:#181818;stroke-width:1.0;" x1="228.1143" x2="72.3428" y1="338.8438" y2="338.8438"/><line style="stroke:#181818;stroke-width:1.0;" x1="72.3428" x2="72.3428" y1="338.8438" y2="353.8438"/><polygon fill="#181818" points="68.3428,343.8438,72.3428,353.8438,76.3428,343.8438,72.3428,347.8438" style="stroke:#181818;stroke-width:1.0;"/><line style="stroke:#181818;stroke-width:1.0;" x1="251.0659" x2="376.7383" y1="365.8438" y2="365.8438"/><line style="stroke:#181818;stroke-width:1.0;" x1="376.7383" x2="376.7383" y1="365.8438" y2="407.2461"/><polygon fill="#181818" points="372.7383,397.2461,376.7383,407.2461,380.7383,397.2461,376.7383,401.2461" style="stroke:#181818;stroke-width:1.0;"/><line style="stroke:#181818;stroke-width:1.0;" x1="376.7383" x2="376.7383" y1="441.2148" y2="464.6172"/><polygon fill="#181818" points="372.7383,454.6172,376.7383,464.6172,380.7383,454.6172,376.7383,458.6172" style="stroke:#181818;stroke-width:1.0;"/><line style="stroke:#181818;stroke-width:1.0;" x1="72.3428" x2="376.7383" y1="464.6172" y2="464.6172"/><line style="stroke:#181818;stroke-width:1.0;" x1="228.1143" x2="228.1143" y1="464.6172" y2="484.6172"/><polygon fill="#181818" points="224.1143,474.6172,228.1143,484.6172,232.1143,474.6172,228.1143,478.6172" style="stroke:#181818;stroke-width:1.0;"/><line style="stroke:#181818;stroke-width:1.0;" x1="228.1143" x2="228.1143" y1="518.5859" y2="538.5859"/><polygon fill="#181818" points="224.1143,528.5859,228.1143,538.5859,232.1143,528.5859,228.1143,532.5859" style="stroke:#181818;stroke-width:1.0;"/><line style="stroke:#181818;stroke-width:1.0;" x1="228.1143" x2="228.1143" y1="572.5547" y2="592.5547"/><polygon fill="#181818" points="224.1143,582.5547,228.1143,592.5547,232.1143,582.5547,228.1143,586.5547" style="stroke:#181818;stroke-width:1.0;"/><line style="stroke:#181818;stroke-width:1.0;" x1="338.7512" x2="228.1143" y1="169.9375" y2="169.9375"/><line style="stroke:#181818;stroke-width:1.0;" x1="228.1143" x2="228.1143" y1="169.9375" y2="191.9375"/><polygon fill="#181818" points="224.1143,181.9375,228.1143,191.9375,232.1143,181.9375,228.1143,185.9375" style="stroke:#181818;stroke-width:1.0;"/><line style="stroke:#181818;stroke-width:1.0;" x1="456.9656" x2="567.6025" y1="169.9375" y2="169.9375"/><line style="stroke:#181818;stroke-width:1.0;" x1="567.6025" x2="567.6025" y1="169.9375" y2="191.9375"/><polygon fill="#181818" points="563.6025,181.9375,567.6025,191.9375,571.6025,181.9375,567.6025,185.9375" style="stroke:#181818;stroke-width:1.0;"/><line style="stroke:#181818;stroke-width:1.0;" x1="228.1143" x2="228.1143" y1="626.5234" y2="644.5234"/><line style="stroke:#181818;stroke-width:1.0;" x1="228.1143" x2="385.8584" y1="644.5234" y2="644.5234"/><polygon fill="#181818" points="375.8584,640.5234,385.8584,644.5234,375.8584,648.5234,379.8584,644.5234" style="stroke:#181818;stroke-width:1.0;"/><line style="stroke:#181818;stroke-width:1.0;" x1="567.6025" x2="567.6025" y1="225.9063" y2="644.5234"/><line style="stroke:#181818;stroke-width:1.0;" x1="567.6025" x2="409.8584" y1="644.5234" y2="644.5234"/><polygon fill="#181818" points="419.8584,640.5234,409.8584,644.5234,419.8584,648.5234,415.8584,644.5234" style="stroke:#181818;stroke-width:1.0;"/><line style="stroke:#181818;stroke-width:1.0;" x1="397.8584" x2="397.8584" y1="137.9375" y2="157.9375"/><polygon fill="#181818" points="393.8584,147.9375,397.8584,157.9375,401.8584,147.9375,397.8584,151.9375" style="stroke:#181818;stroke-width:1.0;"/><line style="stroke:#181818;stroke-width:1.0;" x1="397.8584" x2="397.8584" y1="656.5234" y2="676.5234"/><polygon fill="#181818" points="393.8584,666.5234,397.8584,676.5234,401.8584,666.5234,397.8584,670.5234" style="stroke:#181818;stroke-width:1.0;"/><!--SRC=[LP11ZeCm34NtEOMNS0LOZD1KgYfrfAgT2tY26o859oAc8-RqWu6sOkTyF_l_E0iEOgepZcmxQ5AgJNMZG5RWZEn6T5GRVuVYrCyb74Zc5hKV9KX73CL4kJG0rPLiTEp_21QmLktWSmeuGVD07_0d41onfxpqDWyLzAqEMiFtbEYr_0kbq-tAQqvGuJL38TCo-1bRpsu7hj8UBMxM4rlQWPls9hdrTmruqUHFjReCyU5RWeRpBmsxtrqfZq5gitfmB3U-Jm8IjukjLu76eUSPNKoonFGF]--></g></svg>