<svg xmlns="http://www.w3.org/2000/svg" xmlns:xlink="http://www.w3.org/1999/xlink" contentStyleType="text/css" height="392px" preserveAspectRatio="none" style="width:779px;height:392px;background:#FFFFFF;" version="1.1" viewBox="0 0 779 392" width="779px" zoomAndPan="magnify"><defs/><g><!--class App--><g id="elem_App"><rect codeLine="1" fill="#F1F1F1" height="96.8906" id="App" rx="2.5" ry="2.5" style="stroke:#181818;stroke-width:0.5;" width="142.1289" x="207.27" y="7"/><ellipse cx="260.4092" cy="23" fill="#ADD1B2" rx="11" ry="11" style="stroke:#181818;stroke-width:1.0;"/><path d="M263.3779,28.6406 Q262.7998,28.9375 262.1592,29.0781 Q261.5185,29.2344 260.8154,29.2344 Q258.3154,29.2344 256.9873,27.5938 Q255.6748,25.9375 255.6748,22.8125 Q255.6748,19.6875 256.9873,18.0313 Q258.3154,16.375 260.8154,16.375 Q261.5185,16.375 262.1592,16.5313 Q262.8154,16.6875 263.3779,16.9844 L263.3779,19.7031 Q262.7529,19.125 262.1592,18.8594 Q261.5654,18.5781 260.9404,18.5781 Q259.5967,18.5781 258.9092,19.6563 Q258.2217,20.7188 258.2217,22.8125 Q258.2217,24.9063 258.9092,25.9844 Q259.5967,27.0469 260.9404,27.0469 Q261.5654,27.0469 262.1592,26.7813 Q262.7529,26.5 263.3779,25.9219 L263.3779,28.6406 Z " fill="#000000"/><text fill="#000000" font-family="sans-serif" font-size="14" lengthAdjust="spacing" textLength="27.3506" x="280.9092" y="27.8467">App</text><line style="stroke:#181818;stroke-width:0.5;" x1="208.27" x2="348.3989" y1="39" y2="39"/><ellipse cx="218.27" cy="52.6484" fill="none" rx="3" ry="3" style="stroke:#038048;stroke-width:1.0;"/><text fill="#000000" font-family="sans-serif" font-size="14" lengthAdjust="spacing" textLength="116.1289" x="227.27" y="55.9951">language: String</text><line style="stroke:#181818;stroke-width:0.5;" x1="208.27" x2="348.3989" y1="63.2969" y2="63.2969"/><ellipse cx="218.27" cy="76.9453" fill="#84BE84" rx="3" ry="3" style="stroke:#038048;stroke-width:1.0;"/><text fill="#000000" font-family="sans-serif" font-size="14" lengthAdjust="spacing" textLength="43.5313" x="227.27" y="80.292">start()</text><ellipse cx="218.27" cy="93.2422" fill="#84BE84" rx="3" ry="3" style="stroke:#038048;stroke-width:1.0;"/><text fill="#000000" font-family="sans-serif" font-size="14" lengthAdjust="spacing" textLength="41.1592" x="227.27" y="96.5889">stop()</text></g><!--class Camera--><g id="elem_Camera"><rect codeLine="7" fill="#F1F1F1" height="80.5938" id="Camera" rx="2.5" ry="2.5" style="stroke:#181818;stroke-width:0.5;" width="134.6641" x="7" y="163.89"/><ellipse cx="43.4756" cy="179.89" fill="#ADD1B2" rx="11" ry="11" style="stroke:#181818;stroke-width:1.0;"/><path d="M46.4444,185.5306 Q45.8663,185.8275 45.2256,185.9681 Q44.585,186.1244 43.8819,186.1244 Q41.3819,186.1244 40.0538,184.4838 Q38.7413,182.8275 38.7413,179.7025 Q38.7413,176.5775 40.0538,174.9213 Q41.3819,173.265 43.8819,173.265 Q44.585,173.265 45.2256,173.4213 Q45.8819,173.5775 46.4444,173.8744 L46.4444,176.5931 Q45.8194,176.015 45.2256,175.7494 Q44.6319,175.4681 44.0069,175.4681 Q42.6631,175.4681 41.9756,176.5463 Q41.2881,177.6088 41.2881,179.7025 Q41.2881,181.7963 41.9756,182.8744 Q42.6631,183.9369 44.0069,183.9369 Q44.6319,183.9369 45.2256,183.6713 Q45.8194,183.39 46.4444,182.8119 L46.4444,185.5306 Z " fill="#000000"/><text fill="#000000" font-family="sans-serif" font-size="14" lengthAdjust="spacing" textLength="54.9404" x="62.248" y="184.7367">Camera</text><line style="stroke:#181818;stroke-width:0.5;" x1="8" x2="140.6641" y1="195.89" y2="195.89"/><line style="stroke:#181818;stroke-width:0.5;" x1="8" x2="140.6641" y1="203.89" y2="203.89"/><ellipse cx="18" cy="217.5384" fill="#84BE84" rx="3" ry="3" style="stroke:#038048;stroke-width:1.0;"/><text fill="#000000" font-family="sans-serif" font-size="14" lengthAdjust="spacing" textLength="100.8027" x="27" y="220.8851">openCamera()</text><ellipse cx="18" cy="233.8353" fill="#84BE84" rx="3" ry="3" style="stroke:#038048;stroke-width:1.0;"/><text fill="#000000" font-family="sans-serif" font-size="14" lengthAdjust="spacing" textLength="108.6641" x="27" y="237.182">captureImage()</text></g><!--class ImageRecognition--><g id="elem_ImageRecognition"><rect codeLine="12" fill="#F1F1F1" height="80.5938" id="ImageRecognition" rx="2.5" ry="2.5" style="stroke:#181818;stroke-width:0.5;" width="203.2422" x="176.71" y="163.89"/><ellipse cx="211.6568" cy="179.89" fill="#ADD1B2" rx="11" ry="11" style="stroke:#181818;stroke-width:1.0;"/><path d="M214.6255,185.5306 Q214.0474,185.8275 213.4068,185.9681 Q212.7662,186.1244 212.063,186.1244 Q209.563,186.1244 208.2349,184.4838 Q206.9224,182.8275 206.9224,179.7025 Q206.9224,176.5775 208.2349,174.9213 Q209.563,173.265 212.063,173.265 Q212.7662,173.265 213.4068,173.4213 Q214.063,173.5775 214.6255,173.8744 L214.6255,176.5931 Q214.0005,176.015 213.4068,175.7494 Q212.813,175.4681 212.188,175.4681 Q210.8443,175.4681 210.1568,176.5463 Q209.4693,177.6088 209.4693,179.7025 Q209.4693,181.7963 210.1568,182.8744 Q210.8443,183.9369 212.188,183.9369 Q212.813,183.9369 213.4068,183.6713 Q214.0005,183.39 214.6255,182.8119 L214.6255,185.5306 Z " fill="#000000"/><text fill="#000000" font-family="sans-serif" font-size="14" lengthAdjust="spacing" textLength="126.916" x="230.0894" y="184.7367">ImageRecognition</text><line style="stroke:#181818;stroke-width:0.5;" x1="177.71" x2="378.9522" y1="195.89" y2="195.89"/><line style="stroke:#181818;stroke-width:0.5;" x1="177.71" x2="378.9522" y1="203.89" y2="203.89"/><ellipse cx="187.71" cy="217.5384" fill="#84BE84" rx="3" ry="3" style="stroke:#038048;stroke-width:1.0;"/><text fill="#000000" font-family="sans-serif" font-size="14" lengthAdjust="spacing" textLength="165.416" x="196.71" y="220.8851">detectImage(): Boolean</text><ellipse cx="187.71" cy="233.8353" fill="#84BE84" rx="3" ry="3" style="stroke:#038048;stroke-width:1.0;"/><text fill="#000000" font-family="sans-serif" font-size="14" lengthAdjust="spacing" textLength="177.2422" x="196.71" y="237.182">getImageDetails(): String</text></g><!--class Game--><g id="elem_Game"><rect codeLine="17" fill="#F1F1F1" height="80.5938" id="Game" rx="2.5" ry="2.5" style="stroke:#181818;stroke-width:0.5;" width="111.21" x="414.73" y="163.89"/><ellipse cx="446.6191" cy="179.89" fill="#ADD1B2" rx="11" ry="11" style="stroke:#181818;stroke-width:1.0;"/><path d="M449.5878,185.5306 Q449.0097,185.8275 448.3691,185.9681 Q447.7284,186.1244 447.0253,186.1244 Q444.5253,186.1244 443.1972,184.4838 Q441.8847,182.8275 441.8847,179.7025 Q441.8847,176.5775 443.1972,174.9213 Q444.5253,173.265 447.0253,173.265 Q447.7284,173.265 448.3691,173.4213 Q449.0253,173.5775 449.5878,173.8744 L449.5878,176.5931 Q448.9628,176.015 448.3691,175.7494 Q447.7753,175.4681 447.1503,175.4681 Q445.8066,175.4681 445.1191,176.5463 Q444.4316,177.6088 444.4316,179.7025 Q444.4316,181.7963 445.1191,182.8744 Q445.8066,183.9369 447.1503,183.9369 Q447.7753,183.9369 448.3691,183.6713 Q448.9628,183.39 449.5878,182.8119 L449.5878,185.5306 Z " fill="#000000"/><text fill="#000000" font-family="sans-serif" font-size="14" lengthAdjust="spacing" textLength="41.6787" x="464.3722" y="184.7367">Game</text><line style="stroke:#181818;stroke-width:0.5;" x1="415.73" x2="524.94" y1="195.89" y2="195.89"/><line style="stroke:#181818;stroke-width:0.5;" x1="415.73" x2="524.94" y1="203.89" y2="203.89"/><ellipse cx="425.73" cy="217.5384" fill="#84BE84" rx="3" ry="3" style="stroke:#038048;stroke-width:1.0;"/><text fill="#000000" font-family="sans-serif" font-size="14" lengthAdjust="spacing" textLength="85.21" x="434.73" y="220.8851">startGame()</text><ellipse cx="425.73" cy="233.8353" fill="#84BE84" rx="3" ry="3" style="stroke:#038048;stroke-width:1.0;"/><text fill="#000000" font-family="sans-serif" font-size="14" lengthAdjust="spacing" textLength="78.9756" x="434.73" y="237.182">endGame()</text></g><!--class MathGame--><g id="elem_MathGame"><rect codeLine="22" fill="#F1F1F1" height="80.5938" id="MathGame" rx="2.5" ry="2.5" style="stroke:#181818;stroke-width:0.5;" width="158.542" x="181.06" y="304.49"/><ellipse cx="218.4892" cy="320.49" fill="#ADD1B2" rx="11" ry="11" style="stroke:#181818;stroke-width:1.0;"/><path d="M221.458,326.1306 Q220.8799,326.4275 220.2392,326.5681 Q219.5986,326.7244 218.8955,326.7244 Q216.3955,326.7244 215.0674,325.0837 Q213.7549,323.4275 213.7549,320.3025 Q213.7549,317.1775 215.0674,315.5212 Q216.3955,313.865 218.8955,313.865 Q219.5986,313.865 220.2392,314.0212 Q220.8955,314.1775 221.458,314.4744 L221.458,317.1931 Q220.833,316.615 220.2392,316.3494 Q219.6455,316.0681 219.0205,316.0681 Q217.6767,316.0681 216.9892,317.1462 Q216.3017,318.2087 216.3017,320.3025 Q216.3017,322.3962 216.9892,323.4744 Q217.6767,324.5369 219.0205,324.5369 Q219.6455,324.5369 220.2392,324.2712 Q220.833,323.99 221.458,323.4119 L221.458,326.1306 Z " fill="#000000"/><text fill="#000000" font-family="sans-serif" font-size="14" lengthAdjust="spacing" textLength="76.6992" x="237.4735" y="325.3367">MathGame</text><line style="stroke:#181818;stroke-width:0.5;" x1="182.06" x2="338.602" y1="336.49" y2="336.49"/><line style="stroke:#181818;stroke-width:0.5;" x1="182.06" x2="338.602" y1="344.49" y2="344.49"/><ellipse cx="192.06" cy="358.1384" fill="#84BE84" rx="3" ry="3" style="stroke:#038048;stroke-width:1.0;"/><text fill="#000000" font-family="sans-serif" font-size="14" lengthAdjust="spacing" textLength="132.542" x="201.06" y="361.4851">askMathQuestion()</text><ellipse cx="192.06" cy="374.4353" fill="#84BE84" rx="3" ry="3" style="stroke:#038048;stroke-width:1.0;"/><text fill="#000000" font-family="sans-serif" font-size="14" lengthAdjust="spacing" textLength="103.4756" x="201.06" y="377.782">checkAnswer()</text></g><!--class CodingGame--><g id="elem_CodingGame"><rect codeLine="27" fill="#F1F1F1" height="80.5938" id="CodingGame" rx="2.5" ry="2.5" style="stroke:#181818;stroke-width:0.5;" width="191.9766" x="374.34" y="304.49"/><ellipse cx="420.8004" cy="320.49" fill="#ADD1B2" rx="11" ry="11" style="stroke:#181818;stroke-width:1.0;"/><path d="M423.7692,326.1306 Q423.1911,326.4275 422.5504,326.5681 Q421.9098,326.7244 421.2067,326.7244 Q418.7067,326.7244 417.3786,325.0837 Q416.0661,323.4275 416.0661,320.3025 Q416.0661,317.1775 417.3786,315.5212 Q418.7067,313.865 421.2067,313.865 Q421.9098,313.865 422.5504,314.0212 Q423.2067,314.1775 423.7692,314.4744 L423.7692,317.1931 Q423.1442,316.615 422.5504,316.3494 Q421.9567,316.0681 421.3317,316.0681 Q419.9879,316.0681 419.3004,317.1462 Q418.6129,318.2087 418.6129,320.3025 Q418.6129,322.3962 419.3004,323.4744 Q419.9879,324.5369 421.3317,324.5369 Q421.9567,324.5369 422.5504,324.2712 Q423.1442,323.99 423.7692,323.4119 L423.7692,326.1306 Z " fill="#000000"/><text fill="#000000" font-family="sans-serif" font-size="14" lengthAdjust="spacing" textLength="90.5557" x="441.3004" y="325.3367">CodingGame</text><line style="stroke:#181818;stroke-width:0.5;" x1="375.34" x2="565.3166" y1="336.49" y2="336.49"/><line style="stroke:#181818;stroke-width:0.5;" x1="375.34" x2="565.3166" y1="344.49" y2="344.49"/><ellipse cx="385.34" cy="358.1384" fill="#84BE84" rx="3" ry="3" style="stroke:#038048;stroke-width:1.0;"/><text fill="#000000" font-family="sans-serif" font-size="14" lengthAdjust="spacing" textLength="165.9766" x="394.34" y="361.4851">showCodingChallenge()</text><ellipse cx="385.34" cy="374.4353" fill="#84BE84" rx="3" ry="3" style="stroke:#038048;stroke-width:1.0;"/><text fill="#000000" font-family="sans-serif" font-size="14" lengthAdjust="spacing" textLength="102.9766" x="394.34" y="377.782">validateCode()</text></g><!--class ScienceGame--><g id="elem_ScienceGame"><rect codeLine="32" fill="#F1F1F1" height="80.5938" id="ScienceGame" rx="2.5" ry="2.5" style="stroke:#181818;stroke-width:0.5;" width="171.3389" x="601.66" y="304.49"/><ellipse cx="636.1853" cy="320.49" fill="#ADD1B2" rx="11" ry="11" style="stroke:#181818;stroke-width:1.0;"/><path d="M639.1541,326.1306 Q638.576,326.4275 637.9353,326.5681 Q637.2947,326.7244 636.5916,326.7244 Q634.0916,326.7244 632.7635,325.0837 Q631.451,323.4275 631.451,320.3025 Q631.451,317.1775 632.7635,315.5212 Q634.0916,313.865 636.5916,313.865 Q637.2947,313.865 637.9353,314.0212 Q638.5916,314.1775 639.1541,314.4744 L639.1541,317.1931 Q638.5291,316.615 637.9353,316.3494 Q637.3416,316.0681 636.7166,316.0681 Q635.3728,316.0681 634.6853,317.1462 Q633.9978,318.2087 633.9978,320.3025 Q633.9978,322.3962 634.6853,323.4744 Q635.3728,324.5369 636.7166,324.5369 Q637.3416,324.5369 637.9353,324.2712 Q638.5291,323.99 639.1541,323.4119 L639.1541,326.1306 Z " fill="#000000"/><text fill="#000000" font-family="sans-serif" font-size="14" lengthAdjust="spacing" textLength="95.9492" x="654.5243" y="325.3367">ScienceGame</text><line style="stroke:#181818;stroke-width:0.5;" x1="602.66" x2="771.9989" y1="336.49" y2="336.49"/><line style="stroke:#181818;stroke-width:0.5;" x1="602.66" x2="771.9989" y1="344.49" y2="344.49"/><ellipse cx="612.66" cy="358.1384" fill="#84BE84" rx="3" ry="3" style="stroke:#038048;stroke-width:1.0;"/><text fill="#000000" font-family="sans-serif" font-size="14" lengthAdjust="spacing" textLength="145.3389" x="621.66" y="361.4851">presentExperiment()</text><ellipse cx="612.66" cy="374.4353" fill="#84BE84" rx="3" ry="3" style="stroke:#038048;stroke-width:1.0;"/><text fill="#000000" font-family="sans-serif" font-size="14" lengthAdjust="spacing" textLength="77.7998" x="621.66" y="377.782">getResult()</text></g><!--reverse link Game to MathGame--><g id="link_Game_MathGame"><path d="M398.9712,244.4928 C365.9812,264.7028 340.24,282.21 308.67,304.2 " fill="none" id="Game-backto-MathGame" style="stroke:#181818;stroke-width:1.0;"/><polygon fill="none" points="414.32,235.09,395.8369,239.3766,402.1055,249.6091,414.32,235.09" style="stroke:#181818;stroke-width:1.0;"/></g><!--reverse link Game to MathGame--><g id="link_Game_MathGame"><path codeLine="40" d="M407.7418,255.2052 C381.1618,273.7652 362.52,285.5 332.86,304.06 " fill="none" id="Game-backto-MathGame-1" style="stroke:#181818;stroke-width:1.0;"/><polygon fill="none" points="422.5,244.9,404.3068,250.2858,411.1769,260.1246,422.5,244.9" style="stroke:#181818;stroke-width:1.0;"/></g><!--reverse link Game to CodingGame--><g id="link_Game_CodingGame"><path d="M457.2684,262.8446 C455.8084,281.4046 457.22,285.5 458.68,304.06 " fill="none" id="Game-backto-CodingGame" style="stroke:#181818;stroke-width:1.0;"/><polygon fill="none" points="458.68,244.9,451.2869,262.374,463.2499,263.3151,458.68,244.9" style="stroke:#181818;stroke-width:1.0;"/></g><!--reverse link Game to CodingGame--><g id="link_Game_CodingGame"><path codeLine="41" d="M484.168,262.8376 C485.718,281.3976 484.22,285.5 482.67,304.06 " fill="none" id="Game-backto-CodingGame-1" style="stroke:#181818;stroke-width:1.0;"/><polygon fill="none" points="482.67,244.9,478.1888,263.3369,490.1472,262.3382,482.67,244.9" style="stroke:#181818;stroke-width:1.0;"/></g><!--reverse link Game to ScienceGame--><g id="link_Game_ScienceGame"><path d="M535.7968,254.9445 C563.3968,273.5045 582.97,285.5 613.48,304.06 " fill="none" id="Game-backto-ScienceGame" style="stroke:#181818;stroke-width:1.0;"/><polygon fill="none" points="520.86,244.9,532.4487,259.9234,539.145,249.9655,520.86,244.9" style="stroke:#181818;stroke-width:1.0;"/></g><!--reverse link Game to ScienceGame--><g id="link_Game_ScienceGame"><path codeLine="42" d="M541.7065,242.8805 C576.2465,263.2405 604.42,281.75 637.74,304.24 " fill="none" id="Game-backto-ScienceGame-1" style="stroke:#181818;stroke-width:1.0;"/><polygon fill="none" points="526.2,233.74,538.6597,248.0493,544.7533,237.7117,526.2,233.74" style="stroke:#181818;stroke-width:1.0;"/></g><!--link App to Camera--><g id="link_App_Camera"><path codeLine="37" d="M211.82,104.29 C185.19,123.45 159.7507,141.7462 134.3807,159.9962 " fill="none" id="App-to-Camera" style="stroke:#181818;stroke-width:1.0;"/><polygon fill="#181818" points="129.51,163.5,139.1519,161.4915,133.5689,160.5802,134.4802,154.9972,129.51,163.5" style="stroke:#181818;stroke-width:1.0;"/></g><!--link App to ImageRecognition--><g id="link_App_ImageRecognition"><path codeLine="38" d="M278.33,104.09 C278.33,123.34 278.33,139.29 278.33,157.63 " fill="none" id="App-to-ImageRecognition" style="stroke:#181818;stroke-width:1.0;"/><polygon fill="#181818" points="278.33,163.63,282.33,154.63,278.33,158.63,274.33,154.63,278.33,163.63" style="stroke:#181818;stroke-width:1.0;"/></g><!--link App to Game--><g id="link_App_Game"><path codeLine="39" d="M340.93,104.29 C365.99,123.45 389.7528,141.6067 413.6328,159.8567 " fill="none" id="App-to-Game" style="stroke:#181818;stroke-width:1.0;"/><polygon fill="#181818" points="418.4,163.5,413.678,154.8569,414.4273,160.4639,408.8203,161.2132,418.4,163.5" style="stroke:#181818;stroke-width:1.0;"/></g><!--SRC=[TP71QiCm38RlUGeVDqPUe8n1rutHmmvhdq0umZ5rP6ChQs7RkyzEZ98McbFqI_hqMz8EKbBR4DHFe_Btf1oG6S7WHXqvMZ9LJWoH7nubyY47VqsZ9y0E1emW31-GPaawD0GU8-w7Z5vtJi81jJTasNeIHeUCcclzHhrwxn2e9WtEcJTai2wLWkfMm1zvli0czqKHFqXTZQNZ4xYVkl32ENs3W7Gg1LyZfk9pULYF-hIbTCPujH7VPJltSQdtvxbcruDpI6RnzWtETi2OyrS6ZzeYQRmF3H4J4hzV0aOxv3z1veKTC8sEPruvUDk-rBj9U7iCIPGfpJJg-RTjPLChQNdlIbmP_WS0]--></g></svg>