<svg xmlns="http://www.w3.org/2000/svg" xmlns:xlink="http://www.w3.org/1999/xlink" contentStyleType="text/css" height="216px" preserveAspectRatio="none" style="width:1087px;height:216px;background:#FFFFFF;" version="1.1" viewBox="0 0 1087 216" width="1087px" zoomAndPan="magnify"><defs/><g><!--cluster App--><g id="cluster_App"><rect fill="none" height="203.59" rx="2.5" ry="2.5" style="stroke:#181818;stroke-width:1.0;" width="591" x="7" y="7"/><rect fill="none" height="10" style="stroke:#181818;stroke-width:1.0;" width="15" x="578" y="12"/><rect fill="none" height="2" style="stroke:#181818;stroke-width:1.0;" width="4" x="576" y="14"/><rect fill="none" height="2" style="stroke:#181818;stroke-width:1.0;" width="4" x="576" y="18"/><text fill="#000000" font-family="sans-serif" font-size="14" font-weight="bold" lengthAdjust="spacing" textLength="30.8779" x="287.061" y="32.9951">App</text></g><!--entity User Interface--><g id="elem_User Interface"><rect fill="#F1F1F1" height="46.2969" rx="2.5" ry="2.5" style="stroke:#181818;stroke-width:0.5;" width="139.0391" x="23.48" y="42"/><rect fill="#F1F1F1" height="10" style="stroke:#181818;stroke-width:0.5;" width="15" x="142.5191" y="47"/><rect fill="#F1F1F1" height="2" style="stroke:#181818;stroke-width:0.5;" width="4" x="140.5191" y="49"/><rect fill="#F1F1F1" height="2" style="stroke:#181818;stroke-width:0.5;" width="4" x="140.5191" y="53"/><text fill="#000000" font-family="sans-serif" font-size="14" lengthAdjust="spacing" textLength="99.0391" x="38.48" y="74.9951">User Interface</text></g><!--entity Game Logic--><g id="elem_Game Logic"><rect fill="#F1F1F1" height="46.2969" rx="2.5" ry="2.5" style="stroke:#181818;stroke-width:0.5;" width="122.9678" x="459.52" y="42"/><rect fill="#F1F1F1" height="10" style="stroke:#181818;stroke-width:0.5;" width="15" x="562.4878" y="47"/><rect fill="#F1F1F1" height="2" style="stroke:#181818;stroke-width:0.5;" width="4" x="560.4878" y="49"/><rect fill="#F1F1F1" height="2" style="stroke:#181818;stroke-width:0.5;" width="4" x="560.4878" y="53"/><text fill="#000000" font-family="sans-serif" font-size="14" lengthAdjust="spacing" textLength="82.9678" x="474.52" y="74.9951">Game Logic</text></g><!--entity Image Recognition Module--><g id="elem_Image Recognition Module"><rect fill="#F1F1F1" height="46.2969" rx="2.5" ry="2.5" style="stroke:#181818;stroke-width:0.5;" width="226.7236" x="197.64" y="42"/><rect fill="#F1F1F1" height="10" style="stroke:#181818;stroke-width:0.5;" width="15" x="404.3636" y="47"/><rect fill="#F1F1F1" height="2" style="stroke:#181818;stroke-width:0.5;" width="4" x="402.3636" y="49"/><rect fill="#F1F1F1" height="2" style="stroke:#181818;stroke-width:0.5;" width="4" x="402.3636" y="53"/><text fill="#000000" font-family="sans-serif" font-size="14" lengthAdjust="spacing" textLength="186.7236" x="212.64" y="74.9951">Image Recognition Module</text></g><!--entity Camera Module--><g id="elem_Camera Module"><rect fill="#F1F1F1" height="46.2969" rx="2.5" ry="2.5" style="stroke:#181818;stroke-width:0.5;" width="150.2979" x="235.85" y="148.29"/><rect fill="#F1F1F1" height="10" style="stroke:#181818;stroke-width:0.5;" width="15" x="366.1479" y="153.29"/><rect fill="#F1F1F1" height="2" style="stroke:#181818;stroke-width:0.5;" width="4" x="364.1479" y="155.29"/><rect fill="#F1F1F1" height="2" style="stroke:#181818;stroke-width:0.5;" width="4" x="364.1479" y="159.29"/><text fill="#000000" font-family="sans-serif" font-size="14" lengthAdjust="spacing" textLength="110.2979" x="250.85" y="181.2851">Camera Module</text></g><!--entity Math Game--><g id="elem_Math Game"><rect fill="#F1F1F1" height="46.2969" rx="2.5" ry="2.5" style="stroke:#181818;stroke-width:0.5;" width="121.1494" x="614.43" y="148.29"/><rect fill="#F1F1F1" height="10" style="stroke:#181818;stroke-width:0.5;" width="15" x="715.5794" y="153.29"/><rect fill="#F1F1F1" height="2" style="stroke:#181818;stroke-width:0.5;" width="4" x="713.5794" y="155.29"/><rect fill="#F1F1F1" height="2" style="stroke:#181818;stroke-width:0.5;" width="4" x="713.5794" y="159.29"/><text fill="#000000" font-family="sans-serif" font-size="14" lengthAdjust="spacing" textLength="81.1494" x="629.43" y="181.2851">Math Game</text></g><!--entity Coding Game--><g id="elem_Coding Game"><rect fill="#F1F1F1" height="46.2969" rx="2.5" ry="2.5" style="stroke:#181818;stroke-width:0.5;" width="135.0059" x="770.5" y="148.29"/><rect fill="#F1F1F1" height="10" style="stroke:#181818;stroke-width:0.5;" width="15" x="885.5059" y="153.29"/><rect fill="#F1F1F1" height="2" style="stroke:#181818;stroke-width:0.5;" width="4" x="883.5059" y="155.29"/><rect fill="#F1F1F1" height="2" style="stroke:#181818;stroke-width:0.5;" width="4" x="883.5059" y="159.29"/><text fill="#000000" font-family="sans-serif" font-size="14" lengthAdjust="spacing" textLength="95.0059" x="785.5" y="181.2851">Coding Game</text></g><!--entity Science Game--><g id="elem_Science Game"><rect fill="#F1F1F1" height="46.2969" rx="2.5" ry="2.5" style="stroke:#181818;stroke-width:0.5;" width="140.3994" x="940.8" y="148.29"/><rect fill="#F1F1F1" height="10" style="stroke:#181818;stroke-width:0.5;" width="15" x="1061.1994" y="153.29"/><rect fill="#F1F1F1" height="2" style="stroke:#181818;stroke-width:0.5;" width="4" x="1059.1994" y="155.29"/><rect fill="#F1F1F1" height="2" style="stroke:#181818;stroke-width:0.5;" width="4" x="1059.1994" y="159.29"/><text fill="#000000" font-family="sans-serif" font-size="14" lengthAdjust="spacing" textLength="100.3994" x="955.8" y="181.2851">Science Game</text></g><!--link Game Logic to Math Game--><g id="link_Game Logic_Math Game"><path d="M554.42,88.78 C580.25,106.27 610.8615,127.0064 636.6815,144.4864 " fill="none" id="Game Logic-to-Math Game" style="stroke:#181818;stroke-width:1.0;"/><polygon fill="#181818" points="641.65,147.85,636.4397,139.4922,637.5096,145.047,631.9548,146.1169,641.65,147.85" style="stroke:#181818;stroke-width:1.0;"/></g><!--link Game Logic to Coding Game--><g id="link_Game Logic_Coding Game"><path d="M582.87,86.5 C636.75,104.23 709.0105,128.0051 764.5505,146.2751 " fill="none" id="Game Logic-to-Coding Game" style="stroke:#181818;stroke-width:1.0;"/><polygon fill="#181818" points="770.25,148.15,762.9506,141.538,765.5004,146.5876,760.4508,149.1374,770.25,148.15" style="stroke:#181818;stroke-width:1.0;"/></g><!--link Game Logic to Science Game--><g id="link_Game Logic_Science Game"><path d="M582.82,77.88 C661.91,93.1 803.02,120.95 923,148.29 C928.68,149.59 928.7266,149.566 934.6266,150.986 " fill="none" id="Game Logic-to-Science Game" style="stroke:#181818;stroke-width:1.0;"/><polygon fill="#181818" points="940.46,152.39,932.6458,146.3951,935.5988,151.22,930.7739,154.173,940.46,152.39" style="stroke:#181818;stroke-width:1.0;"/></g><!--link Image Recognition Module to Camera Module--><g id="link_Image Recognition Module_Camera Module"><path d="M311,88.78 C311,106.27 311,124.37 311,141.85 " fill="none" id="Image Recognition Module-to-Camera Module" style="stroke:#181818;stroke-width:1.0;"/><polygon fill="#181818" points="311,147.85,315,138.85,311,142.85,307,138.85,311,147.85" style="stroke:#181818;stroke-width:1.0;"/></g><!--SRC=[IyxFBSZFIyqhKL1oB2XGKgZcKW22wD3Yr285pxoIrAAqnEJKM8YWUs9kge9FVdfcCbJ0CpSnFLKXA3KvFpqlioGpFq_1Dp-bD0UctXcelYWHBbRBnOLiX8Akhfr2j6zYIOO2I3GMYwHpVafcNZfEwU3apDIyv5IOF4xNG0r3SGq0]--></g></svg>