<svg xmlns="http://www.w3.org/2000/svg" xmlns:xlink="http://www.w3.org/1999/xlink" contentStyleType="text/css" height="405px" preserveAspectRatio="none" style="width:450px;height:405px;background:#FFFFFF;" version="1.1" viewBox="0 0 450 405" width="450px" zoomAndPan="magnify"><defs/><g><!--cluster Mobile Device--><g id="cluster_Mobile Device"><polygon fill="none" points="247,16,257,6,433,6,433,114.3,423,124.3,247,124.3,247,16" style="stroke:#181818;stroke-width:1.0;"/><line style="stroke:#181818;stroke-width:1.0;" x1="423" x2="433" y1="16" y2="6"/><line style="stroke:#181818;stroke-width:1.0;" x1="247" x2="423" y1="16" y2="16"/><line style="stroke:#181818;stroke-width:1.0;" x1="423" x2="423" y1="16" y2="124.3"/><text fill="#000000" font-family="sans-serif" font-size="14" font-weight="bold" lengthAdjust="spacing" textLength="110.373" x="280.8135" y="31.9951">Mobile Device</text></g><!--cluster Backend Server--><g id="cluster_Backend Server"><polygon fill="none" points="16,174.3,26,164.3,292,164.3,292,378.89,282,388.89,16,388.89,16,174.3" style="stroke:#181818;stroke-width:1.0;"/><line style="stroke:#181818;stroke-width:1.0;" x1="282" x2="292" y1="174.3" y2="164.3"/><line style="stroke:#181818;stroke-width:1.0;" x1="16" x2="282" y1="174.3" y2="174.3"/><line style="stroke:#181818;stroke-width:1.0;" x1="282" x2="282" y1="174.3" y2="388.89"/><text fill="#000000" font-family="sans-serif" font-size="14" font-weight="bold" lengthAdjust="spacing" textLength="124.0928" x="87.9536" y="190.2951">Backend Server</text></g><!--entity App--><g id="elem_App"><rect fill="#F1F1F1" height="46.2969" rx="2.5" ry="2.5" style="stroke:#181818;stroke-width:0.5;" width="67.3506" x="315.32" y="54"/><rect fill="#F1F1F1" height="10" style="stroke:#181818;stroke-width:0.5;" width="15" x="362.6706" y="59"/><rect fill="#F1F1F1" height="2" style="stroke:#181818;stroke-width:0.5;" width="4" x="360.6706" y="61"/><rect fill="#F1F1F1" height="2" style="stroke:#181818;stroke-width:0.5;" width="4" x="360.6706" y="65"/><text fill="#000000" font-family="sans-serif" font-size="14" lengthAdjust="spacing" textLength="27.3506" x="330.32" y="86.9951">App</text></g><!--entity Database--><g id="elem_Database"><rect fill="#F1F1F1" height="46.2969" rx="2.5" ry="2.5" style="stroke:#181818;stroke-width:0.5;" width="106.8008" x="96.6" y="212.3"/><rect fill="#F1F1F1" height="10" style="stroke:#181818;stroke-width:0.5;" width="15" x="183.4008" y="217.3"/><rect fill="#F1F1F1" height="2" style="stroke:#181818;stroke-width:0.5;" width="4" x="181.4008" y="219.3"/><rect fill="#F1F1F1" height="2" style="stroke:#181818;stroke-width:0.5;" width="4" x="181.4008" y="223.3"/><text fill="#000000" font-family="sans-serif" font-size="14" lengthAdjust="spacing" textLength="66.8008" x="111.6" y="245.2951">Database</text></g><!--entity Image Processing Service--><g id="elem_Image Processing Service"><rect fill="#F1F1F1" height="46.2969" rx="2.5" ry="2.5" style="stroke:#181818;stroke-width:0.5;" width="219.7988" x="40.1" y="318.59"/><rect fill="#F1F1F1" height="10" style="stroke:#181818;stroke-width:0.5;" width="15" x="239.8988" y="323.59"/><rect fill="#F1F1F1" height="2" style="stroke:#181818;stroke-width:0.5;" width="4" x="237.8988" y="325.59"/><rect fill="#F1F1F1" height="2" style="stroke:#181818;stroke-width:0.5;" width="4" x="237.8988" y="329.59"/><text fill="#000000" font-family="sans-serif" font-size="14" lengthAdjust="spacing" textLength="179.7988" x="55.1" y="351.5851">Image Processing Service</text></g><!--link Mobile Device to Backend Server--><g id="link_Mobile Device_Backend Server"><path d="M281.1808,124.3473 C281.1878,124.62 281.1948,124.8932 281.2018,125.1671 C281.2299,126.2626 281.2582,127.3678 281.2867,128.4818 C281.515,137.3931 281.7575,146.8594 282,156.325 C282.0606,158.6914 282.1213,161.0578 282.1817,163.4154 C282.1892,163.7101 282.0431,158.0067 282.0506,158.3011 " fill="none" id="Mobile Device-to-Backend Server" style="stroke:#181818;stroke-width:1.0;"/><polygon fill="#181818" points="282.2043,164.2991,285.9725,155.1996,282.0762,159.3008,277.9751,155.4045,282.2043,164.2991" style="stroke:#181818;stroke-width:1.0;"/></g><!--link App to Image Processing Service--><g id="link_App_Image Processing Service"><path d="M348.4,100.61 C346.31,137.4 337.37,211.17 300,258.59 C278.68,285.64 251.3613,302.6095 221.8713,315.7395 " fill="none" id="App-to-Image Processing Service" style="stroke:#181818;stroke-width:1.0;"/><polygon fill="#181818" points="216.39,318.18,226.2389,318.1735,220.9577,316.1463,222.9849,310.8651,216.39,318.18" style="stroke:#181818;stroke-width:1.0;"/></g><!--link Database to Image Processing Service--><g id="link_Database_Image Processing Service"><path d="M150,259.08 C150,276.57 150,294.67 150,312.15 " fill="none" id="Database-to-Image Processing Service" style="stroke:#181818;stroke-width:1.0;"/><polygon fill="#181818" points="150,318.15,154,309.15,150,313.15,146,309.15,150,318.15" style="stroke:#181818;stroke-width:1.0;"/></g><!--SRC=[oyjFILLGyirFoin9LN19BSjCJbLIgEPI08Ba_Do2_BpKl1859SU20YMkMYwkFB1gfyJaxDIy58NWrAAor2AOycYNn9B4fCJYr5W8rpCtCJrL8Q0eFpcrk3WpBnsi76XyBCWWT1jrTUqmpEK2MmkMmcEO4inQGYe1]--></g></svg>