<svg xmlns="http://www.w3.org/2000/svg" xmlns:xlink="http://www.w3.org/1999/xlink" contentStyleType="text/css" height="497px" preserveAspectRatio="none" style="width:880px;height:497px;background:#FFFFFF;" version="1.1" viewBox="0 0 880 497" width="880px" zoomAndPan="magnify"><defs/><g><g id="elem_App"><rect fill="#F1F1F1" height="109.7813" style="stroke:#181818;stroke-width:0.5;" width="214.9453" x="379.44" y="7"/><text fill="#000000" font-family="sans-serif" font-size="14" lengthAdjust="spacing" textLength="27.3506" x="473.2374" y="21.9951">App</text><line style="stroke:#181818;stroke-width:0.5;" x1="380.44" x2="593.3853" y1="27.2969" y2="27.2969"/><text fill="#000000" font-family="sans-serif" font-size="14" lengthAdjust="spacing" textLength="149.2422" x="385.44" y="44.292">language = "English"</text><text fill="#000000" font-family="sans-serif" font-size="14" lengthAdjust="spacing" textLength="202.9453" x="385.44" y="60.5889">currentGame = "MathGame"</text><text fill="#000000" font-family="sans-serif" font-size="14" lengthAdjust="spacing" textLength="67.4639" x="385.44" y="76.8857">score = 0</text><text fill="#000000" font-family="sans-serif" font-size="14" lengthAdjust="spacing" textLength="164.4727" x="385.44" y="93.1826">difficultyLevel = "Easy"</text><text fill="#000000" font-family="sans-serif" font-size="14" lengthAdjust="spacing" textLength="104.0977" x="385.44" y="109.4795">isActive = true</text></g><g id="elem_Camera"><rect fill="#F1F1F1" height="93.4844" style="stroke:#181818;stroke-width:0.5;" width="159.834" x="7" y="210.07"/><text fill="#000000" font-family="sans-serif" font-size="14" lengthAdjust="spacing" textLength="54.9404" x="59.4468" y="225.0651">Camera</text><line style="stroke:#181818;stroke-width:0.5;" x1="8" x2="165.834" y1="230.3669" y2="230.3669"/><text fill="#000000" font-family="sans-serif" font-size="14" lengthAdjust="spacing" textLength="119.082" x="13" y="247.362">status = "active"</text><text fill="#000000" font-family="sans-serif" font-size="14" lengthAdjust="spacing" textLength="147.834" x="13" y="263.6589">resolution = "1080p"</text><text fill="#000000" font-family="sans-serif" font-size="14" lengthAdjust="spacing" textLength="140.5195" x="13" y="279.9557">focusMode = "auto"</text><text fill="#000000" font-family="sans-serif" font-size="14" lengthAdjust="spacing" textLength="118.2139" x="13" y="296.2526">zoomLevel = 1.0</text></g><g id="elem_MathGame"><rect fill="#F1F1F1" height="126.0781" style="stroke:#181818;stroke-width:0.5;" width="210.0098" x="201.91" y="193.78"/><text fill="#000000" font-family="sans-serif" font-size="14" lengthAdjust="spacing" textLength="76.6992" x="268.5653" y="208.7751">MathGame</text><line style="stroke:#181818;stroke-width:0.5;" x1="202.91" x2="410.9198" y1="214.0769" y2="214.0769"/><text fill="#000000" font-family="sans-serif" font-size="14" lengthAdjust="spacing" textLength="160.501" x="207.91" y="231.072">question = "5 + 3 = ?"</text><text fill="#000000" font-family="sans-serif" font-size="14" lengthAdjust="spacing" textLength="115.6094" x="207.91" y="247.3689">userAnswer = ""</text><text fill="#000000" font-family="sans-serif" font-size="14" lengthAdjust="spacing" textLength="143.5547" x="207.91" y="263.6657">correctAnswer = "8"</text><text fill="#000000" font-family="sans-serif" font-size="14" lengthAdjust="spacing" textLength="198.0098" x="207.91" y="279.9626">isAnsweredCorrectly = false</text><text fill="#000000" font-family="sans-serif" font-size="14" lengthAdjust="spacing" textLength="180.3389" x="207.91" y="296.2595">timeLimit = 10 // seconds</text><text fill="#000000" font-family="sans-serif" font-size="14" lengthAdjust="spacing" textLength="140.6768" x="207.91" y="312.5564">hintAvailable = true</text></g><g id="elem_User"><rect fill="#F1F1F1" height="93.4844" style="stroke:#181818;stroke-width:0.5;" width="230.9619" x="446.44" y="396.86"/><text fill="#000000" font-family="sans-serif" font-size="14" lengthAdjust="spacing" textLength="31.9102" x="545.9659" y="411.8551">User</text><line style="stroke:#181818;stroke-width:0.5;" x1="447.44" x2="676.4019" y1="417.1569" y2="417.1569"/><text fill="#000000" font-family="sans-serif" font-size="14" lengthAdjust="spacing" textLength="125.6855" x="452.44" y="434.152">name = "Player1"</text><text fill="#000000" font-family="sans-serif" font-size="14" lengthAdjust="spacing" textLength="55.6172" x="452.44" y="450.4489">age = 8</text><text fill="#000000" font-family="sans-serif" font-size="14" lengthAdjust="spacing" textLength="129.9102" x="452.44" y="466.7457">level = "Beginner"</text><text fill="#000000" font-family="sans-serif" font-size="14" lengthAdjust="spacing" textLength="218.9619" x="452.44" y="483.0426">preferredLanguage = "English"</text></g><g id="elem_GameSettings"><rect fill="#F1F1F1" height="93.4844" style="stroke:#181818;stroke-width:0.5;" width="299.3076" x="447.26" y="210.07"/><text fill="#000000" font-family="sans-serif" font-size="14" lengthAdjust="spacing" textLength="99.1006" x="547.3635" y="225.0651">GameSettings</text><line style="stroke:#181818;stroke-width:0.5;" x1="448.26" x2="745.5676" y1="230.3669" y2="230.3669"/><text fill="#000000" font-family="sans-serif" font-size="14" lengthAdjust="spacing" textLength="150.2471" x="453.26" y="247.362">difficulty = "Medium"</text><text fill="#000000" font-family="sans-serif" font-size="14" lengthAdjust="spacing" textLength="287.3076" x="453.26" y="263.6589">languageOptions = ["English", "Turkish"]</text><text fill="#000000" font-family="sans-serif" font-size="14" lengthAdjust="spacing" textLength="111.7471" x="453.26" y="279.9557">soundOn = true</text><text fill="#000000" font-family="sans-serif" font-size="14" lengthAdjust="spacing" textLength="213.9033" x="453.26" y="296.2526">maxTimeLimit = 30 // seconds</text></g><!--link App to Camera--><g id="link_App_Camera"><path codeLine="39" d="M379.07,104.52 C320.3,128.43 246.92,160.3 183.92,193.78 C174.74,198.65 170.4097,200.9977 161.1797,206.5977 " fill="none" id="App-to-Camera" style="stroke:#181818;stroke-width:1.0;"/><polygon fill="#181818" points="156.05,209.71,165.8194,208.4614,160.3247,207.1164,161.6697,201.6218,156.05,209.71" style="stroke:#181818;stroke-width:1.0;"/><text fill="#000000" font-family="sans-serif" font-size="13" lengthAdjust="spacing" textLength="29.7832" x="274.92" y="159.8469">uses</text></g><!--link App to MathGame--><g id="link_App_MathGame"><path codeLine="40" d="M436.3,117.14 C414.15,140.88 392.1338,164.4836 369.1838,189.0736 " fill="none" id="App-to-MathGame" style="stroke:#181818;stroke-width:1.0;"/><polygon fill="#181818" points="365.09,193.46,374.155,189.6096,368.5015,189.8047,368.3065,184.1512,365.09,193.46" style="stroke:#181818;stroke-width:1.0;"/><text fill="#000000" font-family="sans-serif" font-size="13" lengthAdjust="spacing" textLength="52.1206" x="408.92" y="159.8469">controls</text></g><!--link App to GameSettings--><g id="link_App_GameSettings"><path codeLine="41" d="M476.23,117.17 C475.51,132.83 477.15,149.53 483.92,163.78 C492.33,181.49 501.4635,192.9948 516.4435,205.8948 " fill="none" id="App-to-GameSettings" style="stroke:#181818;stroke-width:1.0;"/><polygon fill="#181818" points="520.99,209.81,516.7804,200.9061,517.2012,206.5473,511.56,206.9682,520.99,209.81" style="stroke:#181818;stroke-width:1.0;"/><text fill="#000000" font-family="sans-serif" font-size="13" lengthAdjust="spacing" textLength="68.1357" x="484.92" y="159.8469">configures</text></g><!--link GameSettings to App--><g id="link_GameSettings_App"><path codeLine="44" d="M584.45,209.65 C578.03,189.59 569.16,166.29 557.92,146.78 C552.1,136.69 548.7316,131.3721 541.3316,121.9321 " fill="none" id="GameSettings-to-App" style="stroke:#181818;stroke-width:1.0;"/><polygon fill="#181818" points="537.63,117.21,540.0344,126.7609,540.7147,121.1451,546.3305,121.8254,537.63,117.21" style="stroke:#181818;stroke-width:1.0;"/><text fill="#000000" font-family="sans-serif" font-size="13" lengthAdjust="spacing" textLength="133.8594" x="566.92" y="159.8469">provides settings for</text></g><!--link User to App--><g id="link_User_App"><path codeLine="42" d="M677.64,398.78 C711.54,379.9 744.65,354.1 763.92,319.86 C791.39,271.02 787.37,244.67 763.92,193.78 C733.98,128.81 664.8418,97.4611 600.4518,80.9411 " fill="none" id="User-to-App" style="stroke:#181818;stroke-width:1.0;"/><polygon fill="#181818" points="594.64,79.45,602.3636,85.5611,599.4831,80.6926,604.3517,77.8121,594.64,79.45" style="stroke:#181818;stroke-width:1.0;"/><text fill="#000000" font-family="sans-serif" font-size="13" lengthAdjust="spacing" textLength="88.9878" x="783.92" y="261.3869">interacts with</text></g><!--link MathGame to User--><g id="link_MathGame_User"><path codeLine="43" d="M392.89,320.12 C427.45,345.16 461.7111,369.9899 493.6111,393.0999 " fill="none" id="MathGame-to-User" style="stroke:#181818;stroke-width:1.0;"/><polygon fill="#181818" points="498.47,396.62,493.5283,388.1006,494.4209,393.6866,488.8349,394.5792,498.47,396.62" style="stroke:#181818;stroke-width:1.0;"/><text fill="#000000" font-family="sans-serif" font-size="13" lengthAdjust="spacing" textLength="130.4126" x="458.92" y="362.9269">displays question to</text></g><!--SRC=[RLB1ZjCm4BttAwnSOTbKAwGA2L1P8IvTBHBB2N7msfDqmB63Pzob8FuTZvsahRGvEVEUPvxVc_3u0mohxJYglokLFwTzdtGFwgrgFlhU8UsR0fWK8tZ-f8U2tMdUoxc2P4AKSbl-B7OTckJuk8C3kD9Aqx5IaRQ6yI1iZWbM_rQhK4NSvdPHJpg8DIUIgxhGw-K855nY35wGTRjfnmfqmIIw2xPequb3BVy9OPWrh5-rPyDc_TEuNmbeRljQlL0t-V2-zaW4SUlf2QA0anaXcs7uLDuiZoibiBULuOuPxRGZA3ZZ03iSa4LFgwwl5O49tb91z-XvUz3ezADxnf-lMSWarqyfV7Rw275TXzVKDZN6sVWFqAFt42jbZD115cPtpyLy6YNEV05cz3rD8q-XblZ1OXgQYvMv7yL1oUpRqlEbQXvI_2d7xpNNaBozz_Fhf3JetmzdljnS-98roN9UNRsRz-EDQd8ar2pr9SgCv4iSWpj3BvvI6HtsAKg7ugYGX9onx7-UO9ZK4t8sPEaid4BE98iqPjlfj3EoRHTZpbgECHpG0kK7JM0NOlCV]--></g></svg>