<svg xmlns="http://www.w3.org/2000/svg" xmlns:xlink="http://www.w3.org/1999/xlink" contentStyleType="text/css" height="444px" preserveAspectRatio="none" style="width:506px;height:444px;background:#FFFFFF;" version="1.1" viewBox="0 0 506 444" width="506px" zoomAndPan="magnify"><defs/><g><line style="stroke:#181818;stroke-width:0.5;stroke-dasharray:5.0,5.0;" x1="25" x2="25" y1="81.2969" y2="363.4922"/><line style="stroke:#181818;stroke-width:0.5;stroke-dasharray:5.0,5.0;" x1="89.4038" x2="89.4038" y1="81.2969" y2="363.4922"/><line style="stroke:#181818;stroke-width:0.5;stroke-dasharray:5.0,5.0;" x1="213.7813" x2="213.7813" y1="81.2969" y2="363.4922"/><line style="stroke:#181818;stroke-width:0.5;stroke-dasharray:5.0,5.0;" x1="328.7217" x2="328.7217" y1="81.2969" y2="363.4922"/><line style="stroke:#181818;stroke-width:0.5;stroke-dasharray:5.0,5.0;" x1="454.6377" x2="454.6377" y1="81.2969" y2="363.4922"/><text fill="#000000" font-family="sans-serif" font-size="14" lengthAdjust="spacing" textLength="35.3145" x="5" y="77.9951">Child</text><ellipse cx="25.6572" cy="13.5" fill="#E2E2F0" rx="8" ry="8" style="stroke:#181818;stroke-width:0.5;"/><path d="M25.6572,21.5 L25.6572,48.5 M12.6572,29.5 L38.6572,29.5 M25.6572,48.5 L12.6572,63.5 M25.6572,48.5 L38.6572,63.5 " fill="none" style="stroke:#181818;stroke-width:0.5;"/><text fill="#000000" font-family="sans-serif" font-size="14" lengthAdjust="spacing" textLength="35.3145" x="5" y="375.4873">Child</text><ellipse cx="25.6572" cy="387.2891" fill="#E2E2F0" rx="8" ry="8" style="stroke:#181818;stroke-width:0.5;"/><path d="M25.6572,395.2891 L25.6572,422.2891 M12.6572,403.2891 L38.6572,403.2891 M25.6572,422.2891 L12.6572,437.2891 M25.6572,422.2891 L38.6572,437.2891 " fill="none" style="stroke:#181818;stroke-width:0.5;"/><rect fill="#E2E2F0" height="30.2969" rx="2.5" ry="2.5" style="stroke:#181818;stroke-width:0.5;" width="41.3506" x="69.4038" y="50"/><text fill="#000000" font-family="sans-serif" font-size="14" lengthAdjust="spacing" textLength="27.3506" x="76.4038" y="69.9951">App</text><rect fill="#E2E2F0" height="30.2969" rx="2.5" ry="2.5" style="stroke:#181818;stroke-width:0.5;" width="41.3506" x="69.4038" y="362.4922"/><text fill="#000000" font-family="sans-serif" font-size="14" lengthAdjust="spacing" textLength="27.3506" x="76.4038" y="382.4873">App</text><rect fill="#E2E2F0" height="30.2969" rx="2.5" ry="2.5" style="stroke:#181818;stroke-width:0.5;" width="68.9404" x="179.7813" y="50"/><text fill="#000000" font-family="sans-serif" font-size="14" lengthAdjust="spacing" textLength="54.9404" x="186.7813" y="69.9951">Camera</text><rect fill="#E2E2F0" height="30.2969" rx="2.5" ry="2.5" style="stroke:#181818;stroke-width:0.5;" width="68.9404" x="179.7813" y="362.4922"/><text fill="#000000" font-family="sans-serif" font-size="14" lengthAdjust="spacing" textLength="54.9404" x="186.7813" y="382.4873">Camera</text><rect fill="#E2E2F0" height="30.2969" rx="2.5" ry="2.5" style="stroke:#181818;stroke-width:0.5;" width="140.916" x="258.7217" y="50"/><text fill="#000000" font-family="sans-serif" font-size="14" lengthAdjust="spacing" textLength="126.916" x="265.7217" y="69.9951">ImageRecognition</text><rect fill="#E2E2F0" height="30.2969" rx="2.5" ry="2.5" style="stroke:#181818;stroke-width:0.5;" width="140.916" x="258.7217" y="362.4922"/><text fill="#000000" font-family="sans-serif" font-size="14" lengthAdjust="spacing" textLength="126.916" x="265.7217" y="382.4873">ImageRecognition</text><rect fill="#E2E2F0" height="30.2969" rx="2.5" ry="2.5" style="stroke:#181818;stroke-width:0.5;" width="90.6992" x="409.6377" y="50"/><text fill="#000000" font-family="sans-serif" font-size="14" lengthAdjust="spacing" textLength="76.6992" x="416.6377" y="69.9951">MathGame</text><rect fill="#E2E2F0" height="30.2969" rx="2.5" ry="2.5" style="stroke:#181818;stroke-width:0.5;" width="90.6992" x="409.6377" y="362.4922"/><text fill="#000000" font-family="sans-serif" font-size="14" lengthAdjust="spacing" textLength="76.6992" x="416.6377" y="382.4873">MathGame</text><polygon fill="#181818" points="78.0791,108.4297,88.0791,112.4297,78.0791,116.4297,82.0791,112.4297" style="stroke:#181818;stroke-width:1.0;"/><line style="stroke:#181818;stroke-width:1.0;" x1="25.6572" x2="84.0791" y1="112.4297" y2="112.4297"/><text fill="#000000" font-family="sans-serif" font-size="13" lengthAdjust="spacing" textLength="40.4219" x="32.6572" y="107.3638">start()</text><polygon fill="#181818" points="202.2515,137.5625,212.2515,141.5625,202.2515,145.5625,206.2515,141.5625" style="stroke:#181818;stroke-width:1.0;"/><line style="stroke:#181818;stroke-width:1.0;" x1="90.0791" x2="208.2515" y1="141.5625" y2="141.5625"/><text fill="#000000" font-family="sans-serif" font-size="13" lengthAdjust="spacing" textLength="93.6025" x="97.0791" y="136.4966">openCamera()</text><polygon fill="#181818" points="101.0791,166.6953,91.0791,170.6953,101.0791,174.6953,97.0791,170.6953" style="stroke:#181818;stroke-width:1.0;"/><line style="stroke:#181818;stroke-width:1.0;stroke-dasharray:2.0,2.0;" x1="95.0791" x2="213.2515" y1="170.6953" y2="170.6953"/><text fill="#000000" font-family="sans-serif" font-size="13" lengthAdjust="spacing" textLength="100.1724" x="107.0791" y="165.6294">cameraReady()</text><polygon fill="#181818" points="317.1797,195.8281,327.1797,199.8281,317.1797,203.8281,321.1797,199.8281" style="stroke:#181818;stroke-width:1.0;"/><line style="stroke:#181818;stroke-width:1.0;" x1="90.0791" x2="323.1797" y1="199.8281" y2="199.8281"/><text fill="#000000" font-family="sans-serif" font-size="13" lengthAdjust="spacing" textLength="92.4473" x="97.0791" y="194.7622">detectImage()</text><polygon fill="#181818" points="101.0791,224.9609,91.0791,228.9609,101.0791,232.9609,97.0791,228.9609" style="stroke:#181818;stroke-width:1.0;"/><line style="stroke:#181818;stroke-width:1.0;stroke-dasharray:2.0,2.0;" x1="95.0791" x2="328.1797" y1="228.9609" y2="228.9609"/><text fill="#000000" font-family="sans-serif" font-size="13" lengthAdjust="spacing" textLength="110.2334" x="107.0791" y="223.895">imageDetected()</text><polygon fill="#181818" points="442.9873,254.0938,452.9873,258.0938,442.9873,262.0938,446.9873,258.0938" style="stroke:#181818;stroke-width:1.0;"/><line style="stroke:#181818;stroke-width:1.0;" x1="90.0791" x2="448.9873" y1="258.0938" y2="258.0938"/><text fill="#000000" font-family="sans-serif" font-size="13" lengthAdjust="spacing" textLength="79.1235" x="97.0791" y="253.0278">startGame()</text><polygon fill="#181818" points="36.6572,283.2266,26.6572,287.2266,36.6572,291.2266,32.6572,287.2266" style="stroke:#181818;stroke-width:1.0;"/><line style="stroke:#181818;stroke-width:1.0;" x1="30.6572" x2="453.9873" y1="287.2266" y2="287.2266"/><text fill="#000000" font-family="sans-serif" font-size="13" lengthAdjust="spacing" textLength="123.0747" x="42.6572" y="282.1606">askMathQuestion()</text><polygon fill="#181818" points="442.9873,312.3594,452.9873,316.3594,442.9873,320.3594,446.9873,316.3594" style="stroke:#181818;stroke-width:1.0;"/><line style="stroke:#181818;stroke-width:1.0;" x1="25.6572" x2="448.9873" y1="316.3594" y2="316.3594"/><text fill="#000000" font-family="sans-serif" font-size="13" lengthAdjust="spacing" textLength="107.1294" x="32.6572" y="311.2935">provideAnswer()</text><polygon fill="#181818" points="36.6572,341.4922,26.6572,345.4922,36.6572,349.4922,32.6572,345.4922" style="stroke:#181818;stroke-width:1.0;"/><line style="stroke:#181818;stroke-width:1.0;stroke-dasharray:2.0,2.0;" x1="30.6572" x2="453.9873" y1="345.4922" y2="345.4922"/><text fill="#000000" font-family="sans-serif" font-size="13" lengthAdjust="spacing" textLength="96.0845" x="42.6572" y="340.4263">checkAnswer()</text><!--SRC=[NOz13i8W44Ntd6AMkkW5M9WqDJ4kNEWD9Z1fIIqGEcgylK0bXEvc_l_p-A1Y5s2Op5CBZu6DCXujG-zzim-uKC16kYuuqeEK6wrXusnZtf2dIxmH8hEXEoMaX9LZw70KSKdQXfNWFDbjZjusG5TkLDuVXFfRB_UlIz34f3ZhCRRtAyuavvp3f2kmDFvtJ6CqYvhBffz8m7LEwlr5QmAdmkMBbU63UnjDlLq_51fE1Qc9r5mIFm00]--></g></svg>