<svg xmlns="http://www.w3.org/2000/svg" xmlns:xlink="http://www.w3.org/1999/xlink" contentStyleType="text/css" height="778px" preserveAspectRatio="none" style="width:438px;height:778px;background:#FFFFFF;" version="1.1" viewBox="0 0 438 778" width="438px" zoomAndPan="magnify"><defs/><g><ellipse cx="181.26" cy="16" fill="#222222" rx="10" ry="10" style="stroke:#222222;stroke-width:1.0;"/><g id="Idle"><rect fill="#F1F1F1" height="50" rx="12.5" ry="12.5" style="stroke:#181818;stroke-width:0.5;" width="50" x="156.26" y="87"/><line style="stroke:#181818;stroke-width:0.5;" x1="156.26" x2="206.26" y1="113.2969" y2="113.2969"/><text fill="#000000" font-family="sans-serif" font-size="14" lengthAdjust="spacing" textLength="25.5186" x="168.5007" y="104.9951">Idle</text></g><g id="DetectingImage"><rect fill="#F1F1F1" height="50" rx="12.5" ry="12.5" style="stroke:#181818;stroke-width:0.5;" width="132.1777" x="69.17" y="214"/><line style="stroke:#181818;stroke-width:0.5;" x1="69.17" x2="201.3477" y1="240.2969" y2="240.2969"/><text fill="#000000" font-family="sans-serif" font-size="14" lengthAdjust="spacing" textLength="112.1777" x="79.17" y="231.9951">DetectingImage</text></g><g id="ImageDetected"><rect fill="#F1F1F1" height="50" rx="12.5" ry="12.5" style="stroke:#181818;stroke-width:0.5;" width="128.0283" x="71.25" y="341"/><line style="stroke:#181818;stroke-width:0.5;" x1="71.25" x2="199.2783" y1="367.2969" y2="367.2969"/><text fill="#000000" font-family="sans-serif" font-size="14" lengthAdjust="spacing" textLength="108.0283" x="81.25" y="358.9951">ImageDetected</text></g><g id="GameSelection"><rect fill="#F1F1F1" height="50" rx="12.5" ry="12.5" style="stroke:#181818;stroke-width:0.5;" width="126.1963" x="72.16" y="468"/><line style="stroke:#181818;stroke-width:0.5;" x1="72.16" x2="198.3563" y1="494.2969" y2="494.2969"/><text fill="#000000" font-family="sans-serif" font-size="14" lengthAdjust="spacing" textLength="106.1963" x="82.16" y="485.9951">GameSelection</text></g><g id="PlayingGame"><rect fill="#F1F1F1" height="50" rx="12.5" ry="12.5" style="stroke:#181818;stroke-width:0.5;" width="112.5244" x="7" y="595"/><line style="stroke:#181818;stroke-width:0.5;" x1="7" x2="119.5244" y1="621.2969" y2="621.2969"/><text fill="#000000" font-family="sans-serif" font-size="14" lengthAdjust="spacing" textLength="92.5244" x="17" y="612.9951">PlayingGame</text></g><g id="GameResult"><rect fill="#F1F1F1" height="50" rx="12.5" ry="12.5" style="stroke:#181818;stroke-width:0.5;" width="105.5654" x="136.48" y="722"/><line style="stroke:#181818;stroke-width:0.5;" x1="136.48" x2="242.0454" y1="748.2969" y2="748.2969"/><text fill="#000000" font-family="sans-serif" font-size="14" lengthAdjust="spacing" textLength="85.5654" x="146.48" y="739.9951">GameResult</text></g><!--link *start* to Idle--><g id="link_*start*_Idle"><path d="M181.26,26.36 C181.26,40.29 181.26,60.95 181.26,80.65 " fill="none" id="*start*-to-Idle" style="stroke:#181818;stroke-width:1.0;"/><polygon fill="#181818" points="181.26,86.65,185.26,77.65,181.26,81.65,177.26,77.65,181.26,86.65" style="stroke:#181818;stroke-width:1.0;"/></g><!--link Idle to DetectingImage--><g id="link_Idle_DetectingImage"><path d="M155.91,116.22 C127.1,121.38 81.36,134.48 60.26,167 C48.84,184.6 58.5004,197.6685 77.8104,210.2285 " fill="none" id="Idle-to-DetectingImage" style="stroke:#181818;stroke-width:1.0;"/><polygon fill="#181818" points="82.84,213.5,77.4765,205.2397,78.6486,210.7738,73.1145,211.9459,82.84,213.5" style="stroke:#181818;stroke-width:1.0;"/><text fill="#000000" font-family="sans-serif" font-size="13" lengthAdjust="spacing" textLength="76.6035" x="61.26" y="180.0669">Launch App</text></g><!--link DetectingImage to Idle--><g id="link_DetectingImage_Idle"><path d="M144.22,213.66 C152.32,191.66 162.1086,165.0511 170.2086,143.0311 " fill="none" id="DetectingImage-to-Idle" style="stroke:#181818;stroke-width:1.0;"/><polygon fill="#181818" points="172.28,137.4,165.4188,144.4657,170.5538,142.0926,172.927,147.2276,172.28,137.4" style="stroke:#181818;stroke-width:1.0;"/><text fill="#000000" font-family="sans-serif" font-size="13" lengthAdjust="spacing" textLength="106.8184" x="161.26" y="180.0669">No Image Found</text></g><!--link DetectingImage to ImageDetected--><g id="link_DetectingImage_ImageDetected"><path d="M135.26,264.4 C135.26,286.42 135.26,312.66 135.26,334.66 " fill="none" id="DetectingImage-to-ImageDetected" style="stroke:#181818;stroke-width:1.0;"/><polygon fill="#181818" points="135.26,340.66,139.26,331.66,135.26,335.66,131.26,331.66,135.26,340.66" style="stroke:#181818;stroke-width:1.0;"/><text fill="#000000" font-family="sans-serif" font-size="13" lengthAdjust="spacing" textLength="85.0078" x="136.26" y="307.0669">Image Found</text></g><!--link ImageDetected to GameSelection--><g id="link_ImageDetected_GameSelection"><path d="M135.26,391.4 C135.26,413.42 135.26,439.66 135.26,461.66 " fill="none" id="ImageDetected-to-GameSelection" style="stroke:#181818;stroke-width:1.0;"/><polygon fill="#181818" points="135.26,467.66,139.26,458.66,135.26,462.66,131.26,458.66,135.26,467.66" style="stroke:#181818;stroke-width:1.0;"/><text fill="#000000" font-family="sans-serif" font-size="13" lengthAdjust="spacing" textLength="82.9385" x="136.26" y="434.0669">Select Game</text></g><!--link GameSelection to PlayingGame--><g id="link_GameSelection_PlayingGame"><path d="M109.79,518.44 C101.75,527.18 93.37,537.48 87.26,548 C78.83,562.51 74.389,574.6442 70.489,588.8442 " fill="none" id="GameSelection-to-PlayingGame" style="stroke:#181818;stroke-width:1.0;"/><polygon fill="#181818" points="68.9,594.63,75.1407,587.0107,70.2242,589.8085,67.4264,584.892,68.9,594.63" style="stroke:#181818;stroke-width:1.0;"/><text fill="#000000" font-family="sans-serif" font-size="13" lengthAdjust="spacing" textLength="74.5913" x="88.26" y="561.0669">Start Game</text></g><!--link PlayingGame to GameResult--><g id="link_PlayingGame_GameResult"><path d="M64.39,645.3 C66.21,660.18 70.66,678.82 81.26,692 C95.26,709.39 110.7761,719.3177 130.5861,727.7177 " fill="none" id="PlayingGame-to-GameResult" style="stroke:#181818;stroke-width:1.0;"/><polygon fill="#181818" points="136.11,730.06,129.3857,722.8639,131.5067,728.1081,126.2626,730.2292,136.11,730.06" style="stroke:#181818;stroke-width:1.0;"/><text fill="#000000" font-family="sans-serif" font-size="13" lengthAdjust="spacing" textLength="80.7866" x="82.26" y="688.0669">Finish Game</text></g><!--link GameResult to Idle--><g id="link_GameResult_Idle"><path d="M237.17,721.65 C271.71,700.33 312.26,665.76 312.26,621 C312.26,238 312.26,238 312.26,238 C312.26,202.62 300.68,192.61 276.26,167 C256.62,146.4 232.8979,133.7665 212.0579,124.8665 " fill="none" id="GameResult-to-Idle" style="stroke:#181818;stroke-width:1.0;"/><polygon fill="#181818" points="206.54,122.51,213.2458,129.7233,211.1382,124.4737,216.3878,122.3661,206.54,122.51" style="stroke:#181818;stroke-width:1.0;"/><text fill="#000000" font-family="sans-serif" font-size="13" lengthAdjust="spacing" textLength="116.7905" x="313.26" y="434.0669">Exit to Main Menu</text></g><!--link GameResult to GameSelection--><g id="link_GameResult_GameSelection"><path d="M189.81,721.52 C189.96,683.41 187.34,608.02 167.26,548 C163.84,537.77 161.444,532.4779 155.914,523.5679 " fill="none" id="GameResult-to-GameSelection" style="stroke:#181818;stroke-width:1.0;"/><polygon fill="#181818" points="152.75,518.47,154.0974,528.2263,155.3867,522.7183,160.8947,524.0075,152.75,518.47" style="stroke:#181818;stroke-width:1.0;"/><text fill="#000000" font-family="sans-serif" font-size="13" lengthAdjust="spacing" textLength="68.2056" x="186.26" y="624.5669">Play Again</text></g><!--SRC=[ROx12i8m44Jl-Oez2_s17eI2LWfMH8_Y8RHB6qWtfKr0_zviKh4fNi9cvytCFdPFoB8zLAr6mK_u7T1YOnLrrI0xX1pEqb7JGp6EOgC5CqznZwsder8QH-rVd6jok9W456aAWoSvu1qr-mrvHvp3MgGQqrSjtxw71MQjd1PqBNnZRpWxRJrNAb9p_yjSXDMTnvUoO0tKKX7KI6xBRS_aFYWwZty0]--></g></svg>