<svg xmlns="http://www.w3.org/2000/svg" xmlns:xlink="http://www.w3.org/1999/xlink" contentStyleType="text/css" height="185px" preserveAspectRatio="none" style="width:1338px;height:185px;background:#FFFFFF;" version="1.1" viewBox="0 0 1338 185" width="1338px" zoomAndPan="magnify"><defs/><g><!--entity Child--><g id="elem_Child"><ellipse cx="906.2872" cy="14" fill="#F1F1F1" rx="8" ry="8" style="stroke:#181818;stroke-width:0.5;"/><path d="M906.2872,22 L906.2872,49 M893.2872,30 L919.2872,30 M906.2872,49 L893.2872,64 M906.2872,49 L919.2872,64 " fill="none" style="stroke:#181818;stroke-width:0.5;"/><text fill="#000000" font-family="sans-serif" font-size="14" lengthAdjust="spacing" textLength="35.3145" x="888.63" y="78.4951">Child</text></g><g id="elem_Launch App"><ellipse cx="72.2862" cy="161.1972" fill="#F1F1F1" rx="66.2862" ry="15.6572" style="stroke:#181818;stroke-width:0.5;"/><text fill="#000000" font-family="sans-serif" font-size="14" lengthAdjust="spacing" textLength="82.4961" x="28.0382" y="164.9448">Launch App</text></g><g id="elem_Select Game"><ellipse cx="738.2864" cy="161.2033" fill="#F1F1F1" rx="68.7164" ry="16.1433" style="stroke:#181818;stroke-width:0.5;"/><text fill="#000000" font-family="sans-serif" font-size="14" lengthAdjust="spacing" textLength="89.3184" x="690.6273" y="164.9508">Select Game</text></g><g id="elem_Play Game"><ellipse cx="906.2934" cy="161.1967" fill="#F1F1F1" rx="63.8334" ry="15.1667" style="stroke:#181818;stroke-width:0.5;"/><text fill="#000000" font-family="sans-serif" font-size="14" lengthAdjust="spacing" textLength="75.3252" x="865.6308" y="164.9442">Play Game</text></g><g id="elem_Answer Question"><ellipse cx="1085.2938" cy="161.1988" fill="#F1F1F1" rx="80.0438" ry="18.4088" style="stroke:#181818;stroke-width:0.5;"/><text fill="#000000" font-family="sans-serif" font-size="14" lengthAdjust="spacing" textLength="118.6309" x="1024.3286" y="164.5744">Answer Question</text></g><g id="elem_View Result"><ellipse cx="1266.2867" cy="161.2033" fill="#F1F1F1" rx="66.0667" ry="15.6133" style="stroke:#181818;stroke-width:0.5;"/><text fill="#000000" font-family="sans-serif" font-size="14" lengthAdjust="spacing" textLength="81.8672" x="1222.3531" y="164.9509">View Result</text></g><g id="elem_Start Camera"><ellipse cx="292.2918" cy="161.1964" fill="#F1F1F1" rx="70.2818" ry="16.4564" style="stroke:#181818;stroke-width:0.5;"/><text fill="#000000" font-family="sans-serif" font-size="14" lengthAdjust="spacing" textLength="93.5908" x="242.4964" y="164.9439">Start Camera</text></g><g id="elem_Detect Image"><ellipse cx="517.2869" cy="161.1994" fill="#F1F1F1" rx="70.7969" ry="16.5594" style="stroke:#181818;stroke-width:0.5;"/><text fill="#000000" font-family="sans-serif" font-size="14" lengthAdjust="spacing" textLength="94.9785" x="466.7976" y="164.9469">Detect Image</text></g><!--link Child to Launch App--><g id="link_Child_Launch App"><path d="M888.48,47.11 C788.56,60.96 302.0232,128.3665 134.2932,151.6065 " fill="none" id="Child-to-Launch App" style="stroke:#181818;stroke-width:1.0;"/><polygon fill="#181818" points="128.35,152.43,137.8138,155.1569,133.3027,151.7438,136.7159,147.2326,128.35,152.43" style="stroke:#181818;stroke-width:1.0;"/></g><!--link Child to Select Game--><g id="link_Child_Select Game"><path d="M888.31,57.01 C857.16,78.44 798.2231,118.9692 764.7631,141.9892 " fill="none" id="Child-to-Select Game" style="stroke:#181818;stroke-width:1.0;"/><polygon fill="#181818" points="759.82,145.39,769.5019,143.5842,763.9393,142.556,764.9675,136.9934,759.82,145.39" style="stroke:#181818;stroke-width:1.0;"/></g><!--link Child to Play Game--><g id="link_Child_Play Game"><path d="M906.29,82.16 C906.29,103.78 906.29,123.73 906.29,139.58 " fill="none" id="Child-to-Play Game" style="stroke:#181818;stroke-width:1.0;"/><polygon fill="#181818" points="906.29,145.58,910.29,136.58,906.29,140.58,902.29,136.58,906.29,145.58" style="stroke:#181818;stroke-width:1.0;"/></g><!--link Child to Answer Question--><g id="link_Child_Answer Question"><path d="M924.43,56.36 C956.34,76.96 1017.5493,116.4656 1054.2893,140.1856 " fill="none" id="Child-to-Answer Question" style="stroke:#181818;stroke-width:1.0;"/><polygon fill="#181818" points="1059.33,143.44,1053.9385,135.1979,1055.1294,140.728,1049.5993,141.9189,1059.33,143.44" style="stroke:#181818;stroke-width:1.0;"/></g><!--link Child to View Result--><g id="link_Child_View Result"><path d="M924.14,50.37 C979.9,68.27 1145.9271,121.5663 1222.7571,146.2263 " fill="none" id="Child-to-View Result" style="stroke:#181818;stroke-width:1.0;"/><polygon fill="#181818" points="1228.47,148.06,1221.123,141.5009,1223.7092,146.5319,1218.6781,149.1181,1228.47,148.06" style="stroke:#181818;stroke-width:1.0;"/></g><!--link Launch App to Start Camera--><g id="link_Launch App_Start Camera"><path d="M138.89,161.2 C165.07,161.2 189.15,161.2 215.71,161.2 " fill="none" id="Launch App-to-Start Camera" style="stroke:#181818;stroke-width:1.0;stroke-dasharray:7.0,7.0;"/><polygon fill="#181818" points="221.71,161.2,212.71,157.2,216.71,161.2,212.71,165.2,221.71,161.2" style="stroke:#181818;stroke-width:1.0;"/><text fill="#000000" font-family="sans-serif" font-size="13" lengthAdjust="spacing" textLength="47.0996" x="156.79" y="154.2669">include</text></g><!--link Start Camera to Detect Image--><g id="link_Start Camera_Detect Image"><path d="M362.86,161.2 C389.41,161.2 413.59,161.2 440.19,161.2 " fill="none" id="Start Camera-to-Detect Image" style="stroke:#181818;stroke-width:1.0;stroke-dasharray:7.0,7.0;"/><polygon fill="#181818" points="446.19,161.2,437.19,157.2,441.19,161.2,437.19,165.2,446.19,161.2" style="stroke:#181818;stroke-width:1.0;"/><text fill="#000000" font-family="sans-serif" font-size="13" lengthAdjust="spacing" textLength="47.0996" x="381.03" y="154.2669">include</text></g><!--link Detect Image to Select Game--><g id="link_Detect Image_Select Game"><path d="M588.43,161.2 C614.3,161.2 637.47,161.2 663.16,161.2 " fill="none" id="Detect Image-to-Select Game" style="stroke:#181818;stroke-width:1.0;stroke-dasharray:7.0,7.0;"/><polygon fill="#181818" points="669.16,161.2,660.16,157.2,664.16,161.2,660.16,165.2,669.16,161.2" style="stroke:#181818;stroke-width:1.0;"/><text fill="#000000" font-family="sans-serif" font-size="13" lengthAdjust="spacing" textLength="45.2778" x="606.33" y="154.2669">extend</text></g><!--SRC=[POxD2i8m48JlUOezcaFx01w4Ka443_w0zoKPR21DIxAX-lQsdffwMfZlOsVOo12fxPotIlqELTM1TXVEmNJKZADUnmzu6A4JzoZog-VFVzg4D27IBIE96qB1dWuJtP6o5wtKke_gfKWu2hNpnyYQzkI2yTb2RS2Y7Y7BfdFFBnHg2UhD_Dd4Mn3i5m00]--></g></svg>